<svg width="11" height="8" viewBox="0 0 11 8" fill="none" xmlns="http://www.w3.org/2000/svg">
	<path fill-rule="evenodd" clip-rule="evenodd" d="M9.08575 0.828386C9.39816 0.515963 9.90469 0.515964 10.2171 0.828387C10.5295 1.14081 10.5295 1.64735 10.2171 1.95977L4.56029 7.61668C4.24787 7.9291 3.74134 7.9291 3.42892 7.61668C3.1165 7.30426 3.1165 6.79772 3.42892 6.4853L9.08575 0.828386Z" fill="white"/>
	<path fill-rule="evenodd" clip-rule="evenodd" d="M1.16589 4.22241C1.4783 3.91 1.98483 3.91 2.29725 4.22241L4.55997 6.48511C4.87239 6.79752 4.87239 7.30404 4.55997 7.61645C4.24756 7.92887 3.74103 7.92887 3.42861 7.61645L1.16589 5.35376C0.853469 5.04135 0.853469 4.53483 1.16589 4.22241Z" fill="white"/>
</svg>
